# xmcd
#
# Track frame offsets:
#	150
#	12279
#	23652
#	40448
#	51468
#	63434
#	71337
#	87582
#	96821
#	106775
#	115624
#	128499
#	143574
#	155942
#	168717
#	177090
#	188629
#	199145
#	209947
#	223138
#	243019
#	256364
#	266422
#
# Disc length: 3722 seconds
#
# Revision: 0
# Processed by: cddbd v1.5.1PL2 Copyright (c) Steve Scherf et al.
# Submitted via: EasyCDDAExtractor 9.1.3.1
#
DISCID=4e0e8817
DTITLE=Johnny Cash - Personal File, Disc 2
DYEAR=2006
DGENRE=Country
TTITLE0=Wildwood In The Pines
TTITLE1=Who At My Door Is Standing
TTITLE2=Have Thine Own Way Lord
TTITLE3=Lights Of Magdala
TTITLE4=If Jesus Ever Loved A Woman
TTITLE5=The Lily Of The Valley
TTITLE6=Have A Drink Of Water
TTITLE7=The Way Worn Traveler
TTITLE8=Look Unto The East
TTITLE9=Matthew 24 (Is Knocking At The Door)
TTITLE10=The House Is Falling Down
TTITLE11=One Of These Days I'm Gonna Sit Down And Talk To Paul
TTITLE12=What On Earth (Will You Do For Heaven's Sake)
TTITLE13=My Children Walk In The Truth
TTITLE14=No Earthly Good
TTITLE15=Sanctified
TTITLE16=Lord, Lord, Lord
TTITLE17=What Is Man
TTITLE18=Over The Next Hill (We'll Be Home)
TTITLE19=A Half A Mile A Day
TTITLE20=Farther Along
TTITLE21=Life's Railway To Heaven
TTITLE22=In The Sweet Bye And Bye
EXTD=
EXTT0=
EXTT1=
EXTT2=
EXTT3=
EXTT4=
EXTT5=
EXTT6=
EXTT7=
EXTT8=
EXTT9=
EXTT10=
EXTT11=
EXTT12=
EXTT13=
EXTT14=
EXTT15=
EXTT16=
EXTT17=
EXTT18=
EXTT19=
EXTT20=
EXTT21=
EXTT22=
PLAYORDER=
